<svg width="197" height="74" viewBox="0 0 197 74" fill="none" xmlns="http://www.w3.org/2000/svg">
<g clip-path="url(#clip0_323_37530)">
<path d="M10.838 47.7308C13.153 47.7308 14.8793 46.9461 16.1349 45.3374L16.2134 45.3766V47.3777H22.0596V28.191H15.8994V30.1921L15.8211 30.2313C14.487 28.6619 12.5644 27.8379 10.5241 27.8379C5.58034 27.8379 1.77441 31.9184 1.77441 37.804C1.77441 43.7287 5.58034 47.7308 10.838 47.7308ZM12.1328 42.3161C9.70017 42.3161 8.013 40.5112 8.013 37.804C8.013 35.0574 9.77865 33.2525 12.1328 33.2525C14.4085 33.2525 16.1742 35.1751 16.1742 37.804C16.1742 40.5505 14.3301 42.3161 12.1328 42.3161Z" fill="#BDC2C7"/>
<path d="M34.2508 55.4996C42.0196 55.4996 44.6092 51.1051 44.6092 44.8666V28.191H38.4491V30.0744H38.3706C36.9189 28.5834 34.9572 27.8379 32.8775 27.8379C28.0515 27.8379 24.3633 31.8792 24.3633 37.5686C24.3633 43.0223 28.0515 47.0244 33.2308 47.0244C35.4672 47.0244 37.2329 46.2398 38.5276 44.9058L38.6062 44.9449V46.7107C38.6062 48.7116 36.919 50.3597 33.5839 50.3597C31.465 50.3597 29.3464 49.6141 27.7375 48.6725L26.3642 53.6554C28.7185 54.9503 31.1511 55.4996 34.2508 55.4996ZM34.6824 41.5707C32.3675 41.5707 30.6018 39.9227 30.6018 37.4509C30.6018 34.9789 32.3283 33.2917 34.6824 33.2917C36.9581 33.2917 38.7239 34.9789 38.7239 37.4115C38.7239 39.8443 36.9973 41.5707 34.6824 41.5707Z" fill="#BDC2C7"/>
<path d="M57.3508 47.7308C63.3932 47.7308 67.7091 43.6894 67.7091 37.804C67.7091 31.8792 63.3932 27.8379 57.3508 27.8379C51.1515 27.8379 46.9531 31.9578 46.9531 37.804C46.9531 43.611 51.1515 47.7308 57.3508 47.7308ZM57.3508 42.3161C54.9182 42.3161 53.1524 40.3543 53.1524 37.804C53.1524 35.1751 54.8788 33.2917 57.3508 33.2917C59.7442 33.2917 61.5098 35.1358 61.5098 37.804C61.5098 40.4328 59.6657 42.3161 57.3508 42.3161Z" fill="#BDC2C7"/>
<path d="M70.2148 47.3777H76.3356V38.7456C76.3356 36.2345 77.8266 34.3904 80.7302 34.3904C81.0441 34.3904 81.5933 34.4296 82.1818 34.4689V27.8379H81.9464C79.8277 27.8379 77.8266 28.8973 76.4142 30.8591H76.3356V28.191H70.2148V47.3777Z" fill="#BDC2C7"/>
<path d="M91.9192 47.7308C94.2341 47.7308 95.9605 46.9461 97.2161 45.3374L97.2946 45.3766V47.3777H103.141V28.191H96.9806V30.1921L96.9021 30.2313C95.5682 28.6619 93.6456 27.8379 91.6053 27.8379C86.6615 27.8379 82.8555 31.9184 82.8555 37.804C82.8555 43.7287 86.6615 47.7308 91.9192 47.7308ZM93.2139 42.3161C90.7813 42.3161 89.0941 40.5112 89.0941 37.804C89.0941 35.0574 90.8597 33.2525 93.2139 33.2525C95.4897 33.2525 97.2552 35.1751 97.2552 37.804C97.2552 40.5505 95.4111 42.3161 93.2139 42.3161Z" fill="#BDC2C7"/>
<path d="M108.379 55.147H113.519V45.2595L113.597 45.2203C114.931 46.829 116.815 47.7313 119.208 47.7313C124.544 47.7313 128.429 43.7685 128.429 37.8438C128.429 32.0368 124.544 27.917 119.365 27.917C117.011 27.917 114.971 28.7802 113.597 30.3889H113.519V28.1916H108.379V55.147ZM118.306 43.1015C115.481 43.1015 113.283 41.022 113.283 37.883C113.283 34.7833 115.324 32.5076 118.266 32.5076C121.013 32.5076 123.21 34.5871 123.21 37.883C123.21 40.9435 121.17 43.1015 118.306 43.1015Z" fill="#BDC2C7"/>
<path d="M138.014 47.7311C140.172 47.7311 142.212 46.8288 143.664 45.063L143.742 45.1022V47.3779H148.921V28.1914H143.742V37.5296C143.742 41.218 141.741 43.1012 139.505 43.1012C137.111 43.1012 136.052 41.9242 136.052 38.4321V28.1914H130.951V39.7662C130.951 45.6124 133.855 47.7311 138.014 47.7311Z" fill="#BDC2C7"/>
<path d="M152.93 47.3779H158.07V18.5H152.93V47.3779Z" fill="#BDC2C7"/>
<path d="M168.446 47.7313C173.468 47.7313 175.863 45.1418 175.863 41.7674C175.863 37.9615 173.429 37.0591 169.271 35.5289C167.386 34.8227 166.446 34.2733 166.446 33.4886C166.446 32.4684 167.466 32.0761 168.25 32.0761C169.662 32.0761 171.389 32.7038 172.841 34.1163L175.353 30.3104C173.155 28.6233 170.997 27.917 168.368 27.917C164.405 27.917 161.423 30.1535 161.423 33.6063C161.423 37.3338 164.17 38.8248 167.347 39.8841C169.82 40.7081 170.8 41.1397 170.8 41.9636C170.8 42.9053 169.976 43.5331 168.485 43.5331C166.367 43.5331 164.719 42.7875 163.15 41.3359L160.678 44.9064C162.757 46.7113 165.386 47.7313 168.446 47.7313Z" fill="#BDC2C7"/>
<path d="M196.395 37.6084C196.395 31.9976 192.628 27.917 187.214 27.917C181.524 27.917 177.482 31.9191 177.482 37.7653C177.482 43.7685 181.641 47.7313 187.528 47.7313C191.804 47.7313 194.276 46.162 195.884 44.0825L192.55 40.9826C191.529 42.2382 190.038 43.1407 187.881 43.1407C185.291 43.1407 183.447 41.7674 182.82 39.4525H196.278C196.317 39.1386 196.395 38.2361 196.395 37.6084ZM187.174 32.3899C189.411 32.3899 190.784 33.724 191.295 35.7643H182.859C183.447 33.5671 185.094 32.3899 187.174 32.3899Z" fill="#BDC2C7"/>
</g>
<defs>
<clipPath id="clip0_323_37530">
<rect width="196.1" height="74" fill="white" transform="translate(0.849609)"/>
</clipPath>
</defs>
</svg>
