<svg width="106" height="74" viewBox="0 0 106 74" fill="none" xmlns="http://www.w3.org/2000/svg">
<path d="M24.1774 59.4202C36.4984 59.4202 46.5052 49.4428 46.5052 37.1149C46.5052 24.7864 36.4984 14.7998 24.1774 14.7998C11.8373 14.7998 1.84961 24.7864 1.84961 37.1149C1.84961 49.4428 11.8373 59.4202 24.1774 59.4202Z" fill="#BDC2C7"/>
<path d="M23.2793 27.3213V46.8975H29.5028V45.1373H25.073V27.3213H23.2793Z" fill="white"/>
<path d="M17.0472 32.6636C18.5278 32.6636 19.7213 31.4597 19.7213 29.9895C19.7213 28.5181 18.5278 27.3096 17.0472 27.3096C15.5666 27.3096 14.373 28.5181 14.373 29.9895C14.373 31.4609 15.5666 32.6636 17.0472 32.6636Z" fill="white"/>
<path d="M25.0719 18.442C24.8385 18.4305 24.3948 18.416 24.1828 18.416C13.8768 18.416 5.48926 26.8064 5.48926 37.1061C5.48926 42.1089 7.43319 46.798 10.9542 50.3243C14.4897 53.8424 19.1811 55.7863 24.1828 55.7863C29.1654 55.7863 33.8557 53.8424 37.3848 50.3243C40.9145 46.798 42.8677 42.1089 42.8677 37.1061V36.2748H42.1115H29.5195V37.9952H41.0872C41.0872 38.0327 41.0872 38.2153 41.0791 38.2626C40.491 47.0678 33.137 54.0417 24.1828 54.0417C19.6502 54.0417 15.4001 52.2792 12.2015 49.0782C8.99238 45.8905 7.22407 41.6439 7.22407 37.1055C7.22407 32.5932 8.99238 28.3246 12.2015 25.1271C15.4001 21.9324 19.6502 20.1699 24.1828 20.1699C24.3781 20.1699 24.8529 20.1699 25.0719 20.1814V18.442Z" fill="white"/>
<path d="M63.2972 22.3107H56.5879V51.3559H77.1953V45.702H63.2972V22.3107ZM91.9548 40.2873H97.4192V45.3658C96.4117 45.7494 94.4469 46.1318 92.5775 46.1318C86.5389 46.1318 84.5274 43.0649 84.5274 36.8356C84.5274 30.8952 86.443 27.3927 92.4816 27.3927C95.8374 27.3927 97.7542 28.4475 99.3336 30.4608L103.505 26.6255C100.964 22.986 96.5064 21.8838 92.3384 21.8838C82.9428 21.8838 78.0076 27.0114 78.0076 36.7871C78.0076 46.5154 82.4644 51.7869 92.291 51.7869C96.7953 51.7869 101.205 50.6373 103.6 48.9602V34.8703H91.9548V40.2873Z" fill="#BDC2C7"/>
</svg>
