<svg width="129" height="40" viewBox="0 0 129 40" fill="none" xmlns="http://www.w3.org/2000/svg">
<g clip-path="url(#clip0_323_37667)">
<path fill-rule="evenodd" clip-rule="evenodd" d="M88.1529 24.059H76.8445C76.5162 24.1411 76.6855 24.1001 76.4649 24.9979C75.9107 27.3222 74.4484 29.2463 72.1139 30.2057C69.4202 31.3037 65.5567 31.2884 62.9451 30.1288C57.1678 27.5582 55.8902 20.1852 57.9169 15.157C58.9225 12.6532 60.8209 10.7137 63.3248 9.72345C65.9723 8.67163 69.9897 8.77424 72.4679 9.9646C74.7614 11.0729 75.9877 13.0123 76.4649 15.4238C76.5983 16.0857 76.547 15.9933 77.255 15.9882C80.8312 15.9472 84.5254 16.0959 88.0811 15.9728C88.2504 13.5459 86.8907 10.1031 85.8646 8.47665C84.5972 6.4705 82.8938 4.79784 80.9082 3.54079C76.1929 0.549512 71.2725 -0.327861 64.6126 0.10313C58.4556 0.498204 53.8071 2.71473 50.6054 5.81375C43.5865 12.6224 42.8425 26.8143 50.6311 34.136L51.9087 35.3007C55.2745 38.1534 60.1796 39.5336 64.6485 39.8876C70.6875 40.3648 76.6496 39.3489 80.8466 36.5885C84.2535 34.3463 87.8245 30.1083 88.1529 24.0436V24.059ZM0 12.5146L14.5203 12.5249L14.5357 38.5485L27.5064 38.5588L27.5321 12.5454L42.0421 12.53V2.04259L0.0410467 2.00667L0 12.5146ZM95.1103 38.5434L128.153 38.569C128.271 37.7481 128.261 28.9641 128.117 28.5177L107.66 28.5023V2.01693L95.1257 1.98102C94.941 2.94561 95.0693 30.7496 95.0693 33.982C95.0693 35.1673 94.941 37.5018 95.1206 38.5485L95.1103 38.5434Z" fill="#BDC2C7"/>
<path fill-rule="evenodd" clip-rule="evenodd" d="M95.1763 38.4413H128.034L128.07 28.6671C126.695 28.6568 108.419 28.7954 107.66 28.5901C107.552 28.3387 107.557 28.4465 107.557 28.1283V2.09961H95.1763L95.166 38.4311L95.1763 38.4413Z" fill="#BDC2C7"/>
</g>
<defs>
<clipPath id="clip0_323_37667">
<rect width="129" height="40.001" fill="white"/>
</clipPath>
</defs>
</svg>
